<?xml version="1.0" standalone="no"?>
<!DOCTYPE svg PUBLIC "-//W3C//DTD SVG 20010904//EN"
 "http://www.w3.org/TR/2001/REC-SVG-20010904/DTD/svg10.dtd">
<svg version="1.0" xmlns="http://www.w3.org/2000/svg"
 width="225.000000pt" height="225.000000pt" viewBox="0 0 225.000000 225.000000"
 preserveAspectRatio="xMidYMid meet">
<metadata>
Created by potrace 1.16, written by Peter Selinger 2001-2019
</metadata>
<g transform="translate(0.000000,225.000000) scale(0.100000,-0.100000)"
fill="#000000" stroke="none">
<path d="M530 1786 c-60 -21 -87 -40 -123 -83 -45 -55 -72 -123 -62 -160 7
-26 8 -27 19 -9 59 95 126 116 256 76 71 -22 155 -26 209 -10 19 5 36 8 37 7
2 -2 -32 -30 -75 -64 -65 -51 -84 -73 -110 -125 -17 -35 -37 -94 -44 -132
l-12 -69 -50 -12 c-108 -25 -194 -85 -215 -151 -20 -59 -8 -69 49 -40 103 53
173 44 241 -30 30 -33 40 -52 38 -71 -3 -23 -10 -28 -58 -38 -70 -14 -109 -35
-149 -80 -22 -25 -31 -46 -31 -70 0 -41 10 -43 57 -14 62 39 145 27 162 -23
20 -58 -8 -114 -115 -230 -114 -123 -134 -158 -134 -231 0 -43 5 -58 23 -75
27 -25 55 -28 82 -8 18 13 18 15 1 74 -30 98 -7 140 100 183 52 21 75 23 199
23 139 0 141 -1 273 -44 l133 -45 47 28 c147 86 308 159 400 181 l97 22 3 210
c2 115 0 223 -3 240 -3 18 -24 52 -46 77 -41 48 -103 78 -187 92 l-42 7 85 90
c47 50 96 114 111 144 28 57 41 149 30 209 -9 47 -66 110 -130 142 -48 24 -55
25 -119 15 -100 -15 -295 -113 -377 -188 -33 -31 -73 -78 -88 -103 l-27 -46
-5 -320 -5 -320 -29 -63 c-22 -47 -48 -81 -104 -133 -41 -38 -77 -68 -79 -65
-2 2 17 33 42 69 25 36 51 82 59 104 17 50 41 450 34 586 -5 96 -3 113 19 174
34 94 59 123 186 216 60 45 105 83 100 84 -6 2 -44 -3 -84 -12 -188 -41 -183
-41 -315 -7 -129 34 -215 40 -274 18z m871 -137 c77 -54 113 -128 112 -229 -1
-80 -34 -142 -117 -225 l-71 -70 -3 113 c-3 112 -3 112 -27 112 l-25 0 0 -386
0 -387 -52 7 c-29 3 -109 6 -178 6 l-125 0 78 50 c42 27 97 70 122 95 71 74
75 96 75 467 0 245 3 326 13 351 31 73 107 133 152 120 11 -3 32 -14 46 -24z
m70 -529 c29 -16 61 -86 57 -128 -3 -34 -6 -38 -47 -51 -39 -12 -53 -12 -100
0 l-56 14 -3 50 c-2 50 -2 50 50 88 55 39 68 43 99 27z m-20 -232 l89 -1 0
-70 c0 -67 -1 -69 -22 -63 -13 3 -62 6 -110 6 l-88 0 0 71 c0 66 1 70 21 64
11 -4 60 -7 110 -7z m45 -189 l44 -11 0 -65 0 -64 -55 -25 c-54 -25 -55 -25
-110 -8 l-55 18 0 73 0 72 33 10 c45 13 91 13 143 0z"/>
</g>
</svg>
